<?xml version="1.0" encoding="UTF-8" standalone="no"?>
<!-- Created with Inkscape (http://www.inkscape.org/) -->

<svg
   width="210mm"
   height="297mm"
   viewBox="0 0 210 297"
   version="1.1"
   id="svg1"
   xml:space="preserve"
   inkscape:version="1.3.2 (091e20e, 2023-11-25, custom)"
   sodipodi:docname="PHMI White Vector.svg"
   xmlns:inkscape="http://www.inkscape.org/namespaces/inkscape"
   xmlns:sodipodi="http://sodipodi.sourceforge.net/DTD/sodipodi-0.dtd"
   xmlns="http://www.w3.org/2000/svg"
   xmlns:svg="http://www.w3.org/2000/svg"><sodipodi:namedview
     id="namedview1"
     pagecolor="#ffffff"
     bordercolor="#000000"
     borderopacity="0.25"
     inkscape:showpageshadow="2"
     inkscape:pageopacity="0.0"
     inkscape:pagecheckerboard="0"
     inkscape:deskcolor="#d1d1d1"
     inkscape:document-units="mm"
     inkscape:zoom="0.73139029"
     inkscape:cx="396.50513"
     inkscape:cy="561.25984"
     inkscape:window-width="1920"
     inkscape:window-height="1017"
     inkscape:window-x="1912"
     inkscape:window-y="-8"
     inkscape:window-maximized="1"
     inkscape:current-layer="g2" /><defs
     id="defs1" /><g
     inkscape:label="Layer 1"
     inkscape:groupmode="layer"
     id="layer1"
     style="display:none"><path
       style="fill:#000000;stroke-width:1.29836"
       d="m 33.097068,209.15437 v -17.8391 h 8.309972 c 4.570484,0 9.532474,0.16411 11.026646,0.36472 5.01814,0.67369 8.263445,2.72842 9.889218,6.26123 0.630537,1.37016 0.784353,2.32653 0.79478,4.94163 0.01195,2.9847 -0.07683,3.42108 -1.115369,5.48507 -2.453176,4.87545 -7.613475,7.41241 -15.077194,7.41241 h -2.714583 v 5.60658 5.60658 h -5.556736 -5.556734 z m 16.137348,-1.67219 c 1.425413,-0.5827 2.269335,-2.04583 2.269335,-3.93438 0,-2.92141 -1.811327,-4.41731 -5.348749,-4.41731 h -1.944464 v 4.41731 4.4173 h 1.921282 c 1.056704,0 2.452873,-0.21731 3.102596,-0.48292 z m 17.897652,1.67219 v -17.8391 h 5.556735 5.556734 v 6.62595 6.62596 h 6.251327 6.25133 v -6.62596 -6.62595 h 5.55673 5.556726 v 17.8391 17.83912 h -5.556726 -5.55673 v -6.62596 -6.62595 h -6.25133 -6.251327 v 6.62595 6.62596 h -5.556734 -5.556735 z m 41.675502,0 v -17.8391 l 8.24828,0.001 8.24828,0.001 2.70573,10.44679 c 1.48817,5.74573 2.79972,11.25328 2.91459,12.23901 0.11485,0.98573 0.26535,1.73693 0.33444,1.66934 0.069,-0.0676 0.29297,-1.027 0.49756,-2.13201 0.20457,-1.10503 1.45423,-6.47711 2.77703,-11.93797 1.32279,-5.46084 2.40506,-10.00982 2.40506,-10.10882 0,-0.099 3.67266,-0.18 8.16146,-0.18 h 8.16146 v 17.8391 17.83912 h -5.42134 -5.42133 l 0.12588,-13.55976 c 0.0693,-7.45788 0.008,-13.48866 -0.13541,-13.40176 -0.14372,0.087 -0.2613,0.41041 -0.2613,0.7189 0,0.30851 -1.44211,6.34308 -3.20466,13.4102 l -3.20467,12.84928 -5.19552,-0.0934 -5.19552,-0.0934 -0.58503,-2.20865 c -0.32177,-1.21475 -1.61726,-6.08005 -2.87885,-10.81177 -1.26159,-4.73173 -2.51479,-9.7482 -2.78488,-11.1477 -0.27009,-1.39952 -0.57645,-2.62811 -0.68082,-2.73021 -0.10435,-0.1021 -0.0967,5.94647 0.0171,13.44128 l 0.20673,13.62696 h -4.9171 -4.91711 z m 51.3998,0 v -17.8391 h 5.55674 5.55673 v 17.8391 17.83912 h -5.55673 -5.55674 z m -4.42731,-20.6424 c -2.14444,-2.14007 -6.52084,-6.84928 -8.60496,-9.25934 -1.29289,-1.49509 -2.79496,-3.16621 -3.33795,-3.7136 -1.85133,-1.86639 -1.76607,-2.11671 1.62437,-4.76969 0.94724,-0.74121 1.8004,-1.44813 1.8959,-1.57091 0.4913,-0.63168 2.97117,-2.00844 3.61767,-2.00844 0.92305,0 1.90052,0.89415 6.28026,5.74484 1.91013,2.11551 4.21257,4.63182 5.11654,5.59179 0.90396,0.95996 1.64631,2.02922 1.64966,2.37614 0.004,0.34691 -1.03471,1.95244 -2.30676,3.56783 -4.09484,5.2 -4.49839,5.4748 -5.93473,4.04138 z m -89.168936,-3.31164 c -4.966331,-0.12727 -10.269782,-0.42097 -11.785446,-0.65282 -3.277781,-0.50138 -6.452717,-1.96392 -8.076307,-3.72034 -2.694093,-2.91452 -3.666656,-8.91317 -2.273042,-14.01985 0.333352,-1.2215 2.296018,-4.33377 3.00966,-4.7725 0.204135,-0.12547 0.909719,-0.70108 1.567963,-1.27906 0.658243,-0.57799 1.830367,-1.2365 2.604719,-1.46335 1.811974,-0.53083 6.934777,-0.54108 10.250429,-0.0205 4.280504,0.67207 4.642351,-0.4337 1.206022,-3.6855 -2.362159,-2.23531 -7.791115,-8.25007 -7.791115,-8.6318 0,-0.11944 -0.294969,-0.62302 -0.655485,-1.11909 -0.360516,-0.49606 -1.102861,-2.12518 -1.649656,-3.62028 -0.980099,-2.67985 -0.993902,-2.82174 -0.97517,-10.02388 0.02049,-7.87724 -0.08857,-7.24689 2.291149,-13.24223 0.963299,-2.42688 2.304618,-4.47077 4.479553,-6.8259 2.550467,-2.76178 5.544278,-4.63906 9.196445,-5.76662 1.331295,-0.41103 3.066567,-1.108 3.856161,-1.54884 1.287578,-0.71887 2.021774,-0.82436 7.119566,-1.02301 5.922374,-0.23077 11.109054,0.16279 12.627654,0.95817 3.2385,1.69618 4.8456,2.89637 6.96179,5.19904 1.32957,1.44675 3.198826,3.47007 4.153876,4.49626 0.95507,1.02619 1.97091,2.16955 2.25742,2.54079 1.25076,1.6206 3.65816,4.31694 5.46677,6.1229 2.74947,2.74544 3.65659,2.62327 4.31431,-0.58104 0.31637,-1.54131 0.31183,-2.54701 -0.0202,-4.48069 -0.23551,-1.37132 -0.30937,-2.68141 -0.16414,-2.91132 0.14522,-0.22991 0.23091,-4.09201 0.19039,-8.58245 -0.0753,-8.34781 0.11354,-10.745233 1.24527,-15.809745 0.87984,-3.937245 2.74375,-6.657452 5.36268,-7.826342 1.01091,-0.451198 2.32162,-1.168454 2.91269,-1.593902 0.59107,-0.425449 1.23105,-0.773533 1.42218,-0.773533 0.60209,0 1.56757,-1.286657 1.5787,-2.103867 0.0442,-3.246366 -2.45615,-7.443207 -7.16066,-12.018953 -4.14198,-4.028616 -4.38174,-4.374147 -4.38174,-6.314426 0,-2.137412 1.03786,-3.87413 2.48433,-4.157173 2.52416,-0.493926 4.04816,-0.243389 6.01767,0.989273 1.05428,0.659843 1.91688,1.335438 1.91688,1.50132 0,0.165884 0.71797,1.116852 1.59549,2.113263 2.16712,2.460693 3.86745,5.03541 5.41941,8.206273 1.19478,2.44111 1.37709,2.648088 2.24469,2.548444 0.74673,-0.08576 1.13026,-0.475543 1.83321,-1.863083 0.48889,-0.965046 1.44096,-2.341207 2.1157,-3.058134 0.67473,-0.716926 1.4128,-1.918889 1.64013,-2.671027 0.42664,-1.411484 2.73318,-3.979321 5.42327,-6.037655 2.44928,-1.874075 3.46845,-2.27891 5.73712,-2.27891 2.07698,0 2.12726,0.02245 3.02524,1.350058 0.67979,1.005025 0.85549,1.591198 0.68753,2.293601 -0.40499,1.693609 -1.29647,2.958565 -3.05966,4.341468 -1.92299,1.508228 -2.01567,1.602976 -5.28191,5.399249 -3.49816,4.065842 -4.14931,5.32792 -4.40203,8.532252 -0.26732,3.389471 0.0784,4.134223 2.48096,5.345469 2.09873,1.058046 6.40725,4.753619 7.14985,6.132691 0.27976,0.51952 0.91077,2.889575 1.40224,5.266783 0.89229,4.31592 0.89328,4.340205 0.67587,16.724616 -0.11971,6.82135 -0.29766,17.75416 -0.39536,24.29517 -0.18186,12.17687 -0.37585,14.25414 -1.93124,20.67974 -0.99715,4.11945 -2.15888,6.03343 -5.69642,9.38499 -4.01041,3.79959 -6.26534,5.7834 -6.57379,5.7834 -0.13465,0 -0.76208,0.38601 -1.39429,0.8578 -2.03441,1.5182 -4.37832,1.99942 -9.74401,2.00054 -4.35874,9.1e-4 -5.15296,-0.094 -7.6711,-0.91638 -1.54494,-0.50457 -3.09291,-1.22439 -3.43996,-1.59958 -1.49579,-1.61712 -3.40261,-0.4989 -4.51888,2.65002 -0.75889,2.14078 -5.19112,7.78568 -7.0958,9.03726 -0.84229,0.55346 -2.55931,1.31284 -3.81563,1.68749 -2.08527,0.62189 -3.357816,0.68581 -14.613186,0.73397 -6.78095,0.029 -16.392366,-0.0514 -21.358698,-0.17851 z m 32.67056,-4.84242 c 4.576036,-1.69131 7.902466,-4.36753 9.396036,-7.55947 0.51603,-1.10278 0.98501,-2.98457 1.19547,-4.79679 l 0.34634,-2.98209 -1.29817,-1.84414 c -0.71398,-1.01428 -2.75601,-3.30097 -4.53785,-5.08154 -1.78182,-1.78057 -3.35167,-3.42972 -3.48853,-3.66478 -0.32606,-0.55997 -4.349266,-5.26217 -6.276166,-7.33538 -0.83186,-0.89501 -1.80135,-1.71701 -2.15443,-1.82665 -1.12283,-0.34867 -3.10538,-3.34372 -3.10538,-4.69132 0,-0.66475 0.16593,-1.30898 0.36872,-1.4316 0.2028,-0.12264 0.51149,-0.59037 0.686,-1.03943 0.47477,-1.22177 1.97412,-1.07364 3.93113,0.38837 0.88703,0.66266 1.61278,1.32721 1.61278,1.47679 0,0.14958 0.82048,1.1103 1.8233,2.13494 1.00281,1.02466 2.598746,2.84484 3.546536,4.04484 1.92339,2.43526 2.18234,2.69458 7.94733,7.95832 2.35907,2.15396 4.70929,4.65877 5.54664,5.91145 0.79914,1.19556 1.60927,2.40797 1.80029,2.69423 0.86124,1.29071 3.34538,3.45696 3.96428,3.45696 0.37577,0 0.77331,0.14261 0.88342,0.31692 0.11013,0.17432 1.01796,0.48229 2.01745,0.68438 0.99949,0.20211 2.20795,0.44974 2.68549,0.55028 6.54935,1.3791 13.27655,-0.51041 16.49655,-4.63349 3.44679,-4.41346 4.09554,-5.33649 4.75965,-6.77208 1.53241,-3.31264 1.66251,-5.22424 1.69973,-24.97475 0.0194,-10.27873 0.145,-20.21766 0.27919,-22.08652 0.30122,-4.19491 0.0176,-5.08681 -1.51138,-4.75283 -2.21826,0.48455 -5.00114,0.36262 -5.62352,-0.24637 -0.75122,-0.73506 -0.85132,-4.361523 -0.16463,-5.963439 0.61973,-1.445673 1.57368,-1.639673 3.64814,-0.741863 2.28147,0.9874 3.34127,0.578365 3.33018,-1.285282 -0.0131,-2.1524 -1.08968,-3.826337 -4.32192,-6.718184 -1.67106,-1.495092 -3.37315,-2.896497 -3.7824,-3.11423 -1.6667,-0.886714 -3.51861,-1.559921 -4.72762,-1.718578 -2.42059,-0.31766 -9.01415,1.476779 -9.44217,2.569693 -0.0654,0.166914 -1.20917,1.486127 -2.54176,2.931582 -1.33259,1.445443 -2.65194,2.956703 -2.93188,3.358354 -0.27994,0.401651 -0.60505,0.806718 -0.72248,0.90016 -0.46371,0.369018 -1.09287,2.35815 -0.98395,3.110826 0.0931,0.643554 0.35584,0.816491 1.36599,0.899236 1.02044,0.08361 1.3576,-0.05715 1.83132,-0.76453 0.699,-1.043779 2.34766,-1.157538 4.82185,-0.332712 1.88451,0.628245 2.21245,1.440472 1.82059,4.509047 -0.32307,2.52988 -1.24086,3.79129 -2.75852,3.79129 -1.541,0 -3.98464,-0.874 -4.96625,-1.77626 -0.75683,-0.69563 -0.82978,-0.70325 -1.39908,-0.14625 -0.54364,0.53192 -0.59711,1.5291 -0.5637,10.51443 0.0218,5.86136 0.1968,10.69215 0.42732,11.79563 0.23685,1.13376 0.34908,4.54202 0.28532,8.66472 -0.0872,5.6385 -0.20715,6.9864 -0.70442,7.91478 -1.28373,2.39664 -4.19798,2.04692 -5.63742,-0.67651 -0.32663,-0.61798 -0.48699,-2.1186 -0.4903,-4.588 l -0.005,-3.66965 -1.81839,-1.90903 c -6.16605,-6.47344 -8.4435,-8.98369 -8.85546,-9.76059 -0.25606,-0.48288 -1.27799,-1.74195 -2.27097,-2.79794 -0.992976,-1.05599 -2.743116,-3.01746 -3.889186,-4.35883 -3.46848,-4.0595 -5.19143,-4.96513 -10.59253,-5.56778 -6.341839,-0.70763 -10.759781,-0.30676 -14.511814,1.31672 -4.853719,2.10017 -10.87009,7.20897 -11.571007,9.82554 -0.200249,0.74754 -0.578173,2.12371 -0.83983,3.05814 -0.694642,2.4807 -1.196247,7.48664 -1.002056,10.00035 0.174672,2.26102 1.242157,6.74144 2.065588,8.6696 0.543404,1.27245 2.621188,3.95165 5.163402,6.65794 2.135217,2.27301 3.559699,3.91213 4.720106,5.43129 0.899015,1.17696 3.9154,4.57651 8.215425,9.25902 1.366775,1.48835 2.904016,3.45926 3.416096,4.37979 0.89478,1.60848 0.90823,1.70779 0.34525,2.54844 -0.50883,0.7598 -0.7648,0.85125 -1.947953,0.69599 -1.102126,-0.14464 -1.986608,-0.73162 -4.633499,-3.07504 l -3.271354,-2.89626 -8.442021,0.17975 c -4.643112,0.0989 -9.020976,0.32179 -9.728588,0.49537 -2.838024,0.69618 -4.443815,3.02312 -4.443815,6.4395 0,3.47455 1.413241,5.58054 4.603862,6.86057 2.058497,0.82582 2.617299,0.88229 11.024455,1.11402 4.870825,0.13426 10.965867,0.33873 13.544541,0.45436 8.659952,0.38835 18.768992,0.19779 20.341552,-0.38343 z M 126.69331,121.0919 c -1.3027,-0.19502 -1.91013,-0.94581 -1.91013,-2.36095 0,-1.66736 1.11016,-1.877 9.61397,-1.8155 7.9097,0.0571 9.66911,0.29894 10.01866,1.37651 0.31814,0.98068 -0.0675,2.22275 -0.78883,2.54075 -0.66192,0.29181 -15.22665,0.51475 -16.93367,0.25919 z M 86.580644,99.49951 c -0.75256,-0.216846 -3.51654,-0.276256 -7.25668,-0.155972 -4.760804,0.153121 -6.232894,0.09516 -6.945918,-0.273495 -1.284801,-0.664256 -18.083085,-17.345809 -21.565268,-21.415396 -1.599107,-1.868861 -3.075387,-3.550833 -3.280622,-3.73772 -1.467967,-1.336725 -6.447281,-7.047996 -6.447281,-7.39503 0,-0.5149 8.359705,-8.745116 8.882707,-8.745116 0.397049,0 2.448751,2.054858 8.10714,8.119617 5.788207,6.203901 6.920145,7.396689 10.650454,11.222997 1.92678,1.976354 4.415046,4.587284 5.529478,5.802035 1.822748,1.986833 7.81423,8.278374 13.07988,13.734919 1.59122,1.648907 1.90568,2.157395 1.63744,2.647775 -0.3705,0.677329 -0.64185,0.699506 -2.39133,0.195386 z"
       id="path1" /></g><g
     inkscape:label="Layer 1 copy"
     inkscape:groupmode="layer"
     id="g2"
     style="fill:#ffffff"><path
       style="fill:#ffffff;stroke-width:1.29836"
       d="m 33.097068,209.15437 v -17.8391 h 8.309972 c 4.570484,0 9.532474,0.16411 11.026646,0.36472 5.01814,0.67369 8.263445,2.72842 9.889218,6.26123 0.630537,1.37016 0.784353,2.32653 0.79478,4.94163 0.01195,2.9847 -0.07683,3.42108 -1.115369,5.48507 -2.453176,4.87545 -7.613475,7.41241 -15.077194,7.41241 h -2.714583 v 5.60658 5.60658 h -5.556736 -5.556734 z m 16.137348,-1.67219 c 1.425413,-0.5827 2.269335,-2.04583 2.269335,-3.93438 0,-2.92141 -1.811327,-4.41731 -5.348749,-4.41731 h -1.944464 v 4.41731 4.4173 h 1.921282 c 1.056704,0 2.452873,-0.21731 3.102596,-0.48292 z m 17.897652,1.67219 v -17.8391 h 5.556735 5.556734 v 6.62595 6.62596 h 6.251327 6.25133 v -6.62596 -6.62595 h 5.55673 5.556726 v 17.8391 17.83912 h -5.556726 -5.55673 v -6.62596 -6.62595 h -6.25133 -6.251327 v 6.62595 6.62596 h -5.556734 -5.556735 z m 41.675502,0 v -17.8391 l 8.24828,0.001 8.24828,0.001 2.70573,10.44679 c 1.48817,5.74573 2.79972,11.25328 2.91459,12.23901 0.11485,0.98573 0.26535,1.73693 0.33444,1.66934 0.069,-0.0676 0.29297,-1.027 0.49756,-2.13201 0.20457,-1.10503 1.45423,-6.47711 2.77703,-11.93797 1.32279,-5.46084 2.40506,-10.00982 2.40506,-10.10882 0,-0.099 3.67266,-0.18 8.16146,-0.18 h 8.16146 v 17.8391 17.83912 h -5.42134 -5.42133 l 0.12588,-13.55976 c 0.0693,-7.45788 0.008,-13.48866 -0.13541,-13.40176 -0.14372,0.087 -0.2613,0.41041 -0.2613,0.7189 0,0.30851 -1.44211,6.34308 -3.20466,13.4102 l -3.20467,12.84928 -5.19552,-0.0934 -5.19552,-0.0934 -0.58503,-2.20865 c -0.32177,-1.21475 -1.61726,-6.08005 -2.87885,-10.81177 -1.26159,-4.73173 -2.51479,-9.7482 -2.78488,-11.1477 -0.27009,-1.39952 -0.57645,-2.62811 -0.68082,-2.73021 -0.10435,-0.1021 -0.0967,5.94647 0.0171,13.44128 l 0.20673,13.62696 h -4.9171 -4.91711 z m 51.3998,0 v -17.8391 h 5.55674 5.55673 v 17.8391 17.83912 h -5.55673 -5.55674 z m -4.42731,-20.6424 c -2.14444,-2.14007 -6.52084,-6.84928 -8.60496,-9.25934 -1.29289,-1.49509 -2.79496,-3.16621 -3.33795,-3.7136 -1.85133,-1.86639 -1.76607,-2.11671 1.62437,-4.76969 0.94724,-0.74121 1.8004,-1.44813 1.8959,-1.57091 0.4913,-0.63168 2.97117,-2.00844 3.61767,-2.00844 0.92305,0 1.90052,0.89415 6.28026,5.74484 1.91013,2.11551 4.21257,4.63182 5.11654,5.59179 0.90396,0.95996 1.64631,2.02922 1.64966,2.37614 0.004,0.34691 -1.03471,1.95244 -2.30676,3.56783 -4.09484,5.2 -4.49839,5.4748 -5.93473,4.04138 z m -89.168936,-3.31164 c -4.966331,-0.12727 -10.269782,-0.42097 -11.785446,-0.65282 -3.277781,-0.50138 -6.452717,-1.96392 -8.076307,-3.72034 -2.694093,-2.91452 -3.666656,-8.91317 -2.273042,-14.01985 0.333352,-1.2215 2.296018,-4.33377 3.00966,-4.7725 0.204135,-0.12547 0.909719,-0.70108 1.567963,-1.27906 0.658243,-0.57799 1.830367,-1.2365 2.604719,-1.46335 1.811974,-0.53083 6.934777,-0.54108 10.250429,-0.0205 4.280504,0.67207 4.642351,-0.4337 1.206022,-3.6855 -2.362159,-2.23531 -7.791115,-8.25007 -7.791115,-8.6318 0,-0.11944 -0.294969,-0.62302 -0.655485,-1.11909 -0.360516,-0.49606 -1.102861,-2.12518 -1.649656,-3.62028 -0.980099,-2.67985 -0.993902,-2.82174 -0.97517,-10.02388 0.02049,-7.87724 -0.08857,-7.24689 2.291149,-13.24223 0.963299,-2.42688 2.304618,-4.47077 4.479553,-6.8259 2.550467,-2.76178 5.544278,-4.63906 9.196445,-5.76662 1.331295,-0.41103 3.066567,-1.108 3.856161,-1.54884 1.287578,-0.71887 2.021774,-0.82436 7.119566,-1.02301 5.922374,-0.23077 11.109054,0.16279 12.627654,0.95817 3.2385,1.69618 4.8456,2.89637 6.96179,5.19904 1.32957,1.44675 3.198826,3.47007 4.153876,4.49626 0.95507,1.02619 1.97091,2.16955 2.25742,2.54079 1.25076,1.6206 3.65816,4.31694 5.46677,6.1229 2.74947,2.74544 3.65659,2.62327 4.31431,-0.58104 0.31637,-1.54131 0.31183,-2.54701 -0.0202,-4.48069 -0.23551,-1.37132 -0.30937,-2.68141 -0.16414,-2.91132 0.14522,-0.22991 0.23091,-4.09201 0.19039,-8.58245 -0.0753,-8.34781 0.11354,-10.745233 1.24527,-15.809745 0.87984,-3.937245 2.74375,-6.657452 5.36268,-7.826342 1.01091,-0.451198 2.32162,-1.168454 2.91269,-1.593902 0.59107,-0.425449 1.23105,-0.773533 1.42218,-0.773533 0.60209,0 1.56757,-1.286657 1.5787,-2.103867 0.0442,-3.246366 -2.45615,-7.443207 -7.16066,-12.018953 -4.14198,-4.028616 -4.38174,-4.374147 -4.38174,-6.314426 0,-2.137412 1.03786,-3.87413 2.48433,-4.157173 2.52416,-0.493926 4.04816,-0.243389 6.01767,0.989273 1.05428,0.659843 1.91688,1.335438 1.91688,1.50132 0,0.165884 0.71797,1.116852 1.59549,2.113263 2.16712,2.460693 3.86745,5.03541 5.41941,8.206273 1.19478,2.44111 1.37709,2.648088 2.24469,2.548444 0.74673,-0.08576 1.13026,-0.475543 1.83321,-1.863083 0.48889,-0.965046 1.44096,-2.341207 2.1157,-3.058134 0.67473,-0.716926 1.4128,-1.918889 1.64013,-2.671027 0.42664,-1.411484 2.73318,-3.979321 5.42327,-6.037655 2.44928,-1.874075 3.46845,-2.27891 5.73712,-2.27891 2.07698,0 2.12726,0.02245 3.02524,1.350058 0.67979,1.005025 0.85549,1.591198 0.68753,2.293601 -0.40499,1.693609 -1.29647,2.958565 -3.05966,4.341468 -1.92299,1.508228 -2.01567,1.602976 -5.28191,5.399249 -3.49816,4.065842 -4.14931,5.32792 -4.40203,8.532252 -0.26732,3.389471 0.0784,4.134223 2.48096,5.345469 2.09873,1.058046 6.40725,4.753619 7.14985,6.132691 0.27976,0.51952 0.91077,2.889575 1.40224,5.266783 0.89229,4.31592 0.89328,4.340205 0.67587,16.724616 -0.11971,6.82135 -0.29766,17.75416 -0.39536,24.29517 -0.18186,12.17687 -0.37585,14.25414 -1.93124,20.67974 -0.99715,4.11945 -2.15888,6.03343 -5.69642,9.38499 -4.01041,3.79959 -6.26534,5.7834 -6.57379,5.7834 -0.13465,0 -0.76208,0.38601 -1.39429,0.8578 -2.03441,1.5182 -4.37832,1.99942 -9.74401,2.00054 -4.35874,9.1e-4 -5.15296,-0.094 -7.6711,-0.91638 -1.54494,-0.50457 -3.09291,-1.22439 -3.43996,-1.59958 -1.49579,-1.61712 -3.40261,-0.4989 -4.51888,2.65002 -0.75889,2.14078 -5.19112,7.78568 -7.0958,9.03726 -0.84229,0.55346 -2.55931,1.31284 -3.81563,1.68749 -2.08527,0.62189 -3.357816,0.68581 -14.613186,0.73397 -6.78095,0.029 -16.392366,-0.0514 -21.358698,-0.17851 z m 32.67056,-4.84242 c 4.576036,-1.69131 7.902466,-4.36753 9.396036,-7.55947 0.51603,-1.10278 0.98501,-2.98457 1.19547,-4.79679 l 0.34634,-2.98209 -1.29817,-1.84414 c -0.71398,-1.01428 -2.75601,-3.30097 -4.53785,-5.08154 -1.78182,-1.78057 -3.35167,-3.42972 -3.48853,-3.66478 -0.32606,-0.55997 -4.349266,-5.26217 -6.276166,-7.33538 -0.83186,-0.89501 -1.80135,-1.71701 -2.15443,-1.82665 -1.12283,-0.34867 -3.10538,-3.34372 -3.10538,-4.69132 0,-0.66475 0.16593,-1.30898 0.36872,-1.4316 0.2028,-0.12264 0.51149,-0.59037 0.686,-1.03943 0.47477,-1.22177 1.97412,-1.07364 3.93113,0.38837 0.88703,0.66266 1.61278,1.32721 1.61278,1.47679 0,0.14958 0.82048,1.1103 1.8233,2.13494 1.00281,1.02466 2.598746,2.84484 3.546536,4.04484 1.92339,2.43526 2.18234,2.69458 7.94733,7.95832 2.35907,2.15396 4.70929,4.65877 5.54664,5.91145 0.79914,1.19556 1.60927,2.40797 1.80029,2.69423 0.86124,1.29071 3.34538,3.45696 3.96428,3.45696 0.37577,0 0.77331,0.14261 0.88342,0.31692 0.11013,0.17432 1.01796,0.48229 2.01745,0.68438 0.99949,0.20211 2.20795,0.44974 2.68549,0.55028 6.54935,1.3791 13.27655,-0.51041 16.49655,-4.63349 3.44679,-4.41346 4.09554,-5.33649 4.75965,-6.77208 1.53241,-3.31264 1.66251,-5.22424 1.69973,-24.97475 0.0194,-10.27873 0.145,-20.21766 0.27919,-22.08652 0.30122,-4.19491 0.0176,-5.08681 -1.51138,-4.75283 -2.21826,0.48455 -5.00114,0.36262 -5.62352,-0.24637 -0.75122,-0.73506 -0.85132,-4.361523 -0.16463,-5.963439 0.61973,-1.445673 1.57368,-1.639673 3.64814,-0.741863 2.28147,0.9874 3.34127,0.578365 3.33018,-1.285282 -0.0131,-2.1524 -1.08968,-3.826337 -4.32192,-6.718184 -1.67106,-1.495092 -3.37315,-2.896497 -3.7824,-3.11423 -1.6667,-0.886714 -3.51861,-1.559921 -4.72762,-1.718578 -2.42059,-0.31766 -9.01415,1.476779 -9.44217,2.569693 -0.0654,0.166914 -1.20917,1.486127 -2.54176,2.931582 -1.33259,1.445443 -2.65194,2.956703 -2.93188,3.358354 -0.27994,0.401651 -0.60505,0.806718 -0.72248,0.90016 -0.46371,0.369018 -1.09287,2.35815 -0.98395,3.110826 0.0931,0.643554 0.35584,0.816491 1.36599,0.899236 1.02044,0.08361 1.3576,-0.05715 1.83132,-0.76453 0.699,-1.043779 2.34766,-1.157538 4.82185,-0.332712 1.88451,0.628245 2.21245,1.440472 1.82059,4.509047 -0.32307,2.52988 -1.24086,3.79129 -2.75852,3.79129 -1.541,0 -3.98464,-0.874 -4.96625,-1.77626 -0.75683,-0.69563 -0.82978,-0.70325 -1.39908,-0.14625 -0.54364,0.53192 -0.59711,1.5291 -0.5637,10.51443 0.0218,5.86136 0.1968,10.69215 0.42732,11.79563 0.23685,1.13376 0.34908,4.54202 0.28532,8.66472 -0.0872,5.6385 -0.20715,6.9864 -0.70442,7.91478 -1.28373,2.39664 -4.19798,2.04692 -5.63742,-0.67651 -0.32663,-0.61798 -0.48699,-2.1186 -0.4903,-4.588 l -0.005,-3.66965 -1.81839,-1.90903 c -6.16605,-6.47344 -8.4435,-8.98369 -8.85546,-9.76059 -0.25606,-0.48288 -1.27799,-1.74195 -2.27097,-2.79794 -0.992976,-1.05599 -2.743116,-3.01746 -3.889186,-4.35883 -3.46848,-4.0595 -5.19143,-4.96513 -10.59253,-5.56778 -6.341839,-0.70763 -10.759781,-0.30676 -14.511814,1.31672 -4.853719,2.10017 -10.87009,7.20897 -11.571007,9.82554 -0.200249,0.74754 -0.578173,2.12371 -0.83983,3.05814 -0.694642,2.4807 -1.196247,7.48664 -1.002056,10.00035 0.174672,2.26102 1.242157,6.74144 2.065588,8.6696 0.543404,1.27245 2.621188,3.95165 5.163402,6.65794 2.135217,2.27301 3.559699,3.91213 4.720106,5.43129 0.899015,1.17696 3.9154,4.57651 8.215425,9.25902 1.366775,1.48835 2.904016,3.45926 3.416096,4.37979 0.89478,1.60848 0.90823,1.70779 0.34525,2.54844 -0.50883,0.7598 -0.7648,0.85125 -1.947953,0.69599 -1.102126,-0.14464 -1.986608,-0.73162 -4.633499,-3.07504 l -3.271354,-2.89626 -8.442021,0.17975 c -4.643112,0.0989 -9.020976,0.32179 -9.728588,0.49537 -2.838024,0.69618 -4.443815,3.02312 -4.443815,6.4395 0,3.47455 1.413241,5.58054 4.603862,6.86057 2.058497,0.82582 2.617299,0.88229 11.024455,1.11402 4.870825,0.13426 10.965867,0.33873 13.544541,0.45436 8.659952,0.38835 18.768992,0.19779 20.341552,-0.38343 z M 126.69331,121.0919 c -1.3027,-0.19502 -1.91013,-0.94581 -1.91013,-2.36095 0,-1.66736 1.11016,-1.877 9.61397,-1.8155 7.9097,0.0571 9.66911,0.29894 10.01866,1.37651 0.31814,0.98068 -0.0675,2.22275 -0.78883,2.54075 -0.66192,0.29181 -15.22665,0.51475 -16.93367,0.25919 z M 86.580644,99.49951 c -0.75256,-0.216846 -3.51654,-0.276256 -7.25668,-0.155972 -4.760804,0.153121 -6.232894,0.09516 -6.945918,-0.273495 -1.284801,-0.664256 -18.083085,-17.345809 -21.565268,-21.415396 -1.599107,-1.868861 -3.075387,-3.550833 -3.280622,-3.73772 -1.467967,-1.336725 -6.447281,-7.047996 -6.447281,-7.39503 0,-0.5149 8.359705,-8.745116 8.882707,-8.745116 0.397049,0 2.448751,2.054858 8.10714,8.119617 5.788207,6.203901 6.920145,7.396689 10.650454,11.222997 1.92678,1.976354 4.415046,4.587284 5.529478,5.802035 1.822748,1.986833 7.81423,8.278374 13.07988,13.734919 1.59122,1.648907 1.90568,2.157395 1.63744,2.647775 -0.3705,0.677329 -0.64185,0.699506 -2.39133,0.195386 z"
       id="path2" /></g></svg>
